<svg xmlns="http://www.w3.org/2000/svg" xmlns:xlink="http://www.w3.org/1999/xlink" width="300" height="300" viewBox="0 0 300 300">
  <defs>
    <filter id="Ellipse_3" x="7.5" y="77.5" width="285" height="178" filterUnits="userSpaceOnUse">
      <feOffset dy="5" input="SourceAlpha"/>
      <feGaussianBlur stdDeviation="7.5" result="blur"/>
      <feFlood flood-opacity="0.361"/>
      <feComposite operator="in" in2="blur"/>
      <feComposite in="SourceGraphic"/>
    </filter>
    <filter id="Ellipse_3-2" x="56.5" y="118.5" width="236" height="151" filterUnits="userSpaceOnUse">
      <feOffset dy="5" input="SourceAlpha"/>
      <feGaussianBlur stdDeviation="7.5" result="blur-2"/>
      <feFlood flood-opacity="0.361"/>
      <feComposite operator="in" in2="blur-2"/>
      <feComposite in="SourceGraphic"/>
    </filter>
    <clipPath id="clip-Rainmap_4">
      <rect width="300" height="300"/>
    </clipPath>
  </defs>
  <g id="Rainmap_4" data-name="Rainmap – 4" clip-path="url(#clip-Rainmap_4)">
    <rect width="300" height="300" fill="rgba(255,255,255,0)"/>
    <rect id="Rechteck_1" data-name="Rechteck 1" width="240" height="240" transform="translate(30 30)" fill="none"/>
    <g id="Gruppe_4" data-name="Gruppe 4" transform="translate(0 -7)">
      <g id="Gruppe_3" data-name="Gruppe 3" transform="translate(-25 -63.375)">
        <g transform="matrix(1, 0, 0, 1, 25, 70.38)" filter="url(#Ellipse_3)">
          <ellipse id="Ellipse_3-3" data-name="Ellipse 3" cx="120" cy="66.5" rx="120" ry="66.5" transform="translate(30 95)" fill="#f3f3f3"/>
        </g>
        <circle id="Ellipse_4" data-name="Ellipse 4" cx="60" cy="60" r="60" transform="translate(94 128.375)" fill="#f3f3f3"/>
        <circle id="Ellipse_5" data-name="Ellipse 5" cx="51.5" cy="51.5" r="51.5" transform="translate(173 150.375)" fill="#f3f3f3"/>
      </g>
      <g id="Gruppe_2" data-name="Gruppe 2" transform="translate(24.412 -14.375)">
        <g transform="matrix(1, 0, 0, 1, -24.41, 21.38)" filter="url(#Ellipse_3-2)">
          <ellipse id="Ellipse_3-4" data-name="Ellipse 3" cx="95.5" cy="53" rx="95.5" ry="53" transform="translate(79 136)" fill="#fff"/>
        </g>
        <ellipse id="Ellipse_4-2" data-name="Ellipse 4" cx="48" cy="47.5" rx="48" ry="47.5" transform="translate(85.588 128.375)" fill="#fff"/>
        <circle id="Ellipse_5-2" data-name="Ellipse 5" cx="41" cy="41" r="41" transform="translate(148.588 145.375)" fill="#fff"/>
      </g>
    </g>
  </g>
</svg>
