<?xml version="1.0" encoding="UTF-8" standalone="no"?>
<svg
   xmlns:dc="http://purl.org/dc/elements/1.1/"
   xmlns:cc="http://creativecommons.org/ns#"
   xmlns:rdf="http://www.w3.org/1999/02/22-rdf-syntax-ns#"
   xmlns:svg="http://www.w3.org/2000/svg"
   xmlns="http://www.w3.org/2000/svg"
   xmlns:sodipodi="http://sodipodi.sourceforge.net/DTD/sodipodi-0.dtd"
   xmlns:inkscape="http://www.inkscape.org/namespaces/inkscape"
   version="1.1"
   id="Layer_1"
   x="0px"
   y="0px"
   viewBox="0 0 512 512"
   style="enable-background:new 0 0 512 512;"
   xml:space="preserve"
   sodipodi:docname="locationWhite.svg"
   inkscape:version="1.0 (4035a4fb49, 2020-05-01)"><metadata
   id="metadata43"><rdf:RDF><cc:Work
       rdf:about=""><dc:format>image/svg+xml</dc:format><dc:type
         rdf:resource="http://purl.org/dc/dcmitype/StillImage" /></cc:Work></rdf:RDF></metadata><defs
   id="defs41" /><sodipodi:namedview
   inkscape:document-rotation="0"
   pagecolor="#ffffff"
   bordercolor="#666666"
   borderopacity="1"
   objecttolerance="10"
   gridtolerance="10"
   guidetolerance="10"
   inkscape:pageopacity="0"
   inkscape:pageshadow="2"
   inkscape:window-width="1920"
   inkscape:window-height="1137"
   id="namedview39"
   showgrid="false"
   inkscape:zoom="1.8945312"
   inkscape:cx="256"
   inkscape:cy="256"
   inkscape:window-x="1912"
   inkscape:window-y="2"
   inkscape:window-maximized="1"
   inkscape:current-layer="Layer_1" />
<g
   id="g6">
	<g
   id="g4">
		<path
   d="M256,0C161.896,0,85.333,76.563,85.333,170.667c0,28.25,7.063,56.26,20.49,81.104L246.667,506.5    c1.875,3.396,5.448,5.5,9.333,5.5s7.458-2.104,9.333-5.5l140.896-254.813c13.375-24.76,20.438-52.771,20.438-81.021    C426.667,76.563,350.104,0,256,0z M256,256c-47.052,0-85.333-38.281-85.333-85.333c0-47.052,38.281-85.333,85.333-85.333    s85.333,38.281,85.333,85.333C341.333,217.719,303.052,256,256,256z"
   id="path2" />
	</g>
</g>
<g
   id="g8">
</g>
<g
   id="g10">
</g>
<g
   id="g12">
</g>
<g
   id="g14">
</g>
<g
   id="g16">
</g>
<g
   id="g18">
</g>
<g
   id="g20">
</g>
<g
   id="g22">
</g>
<g
   id="g24">
</g>
<g
   id="g26">
</g>
<g
   id="g28">
</g>
<g
   id="g30">
</g>
<g
   id="g32">
</g>
<g
   id="g34">
</g>
<g
   id="g36">
</g>
<path
   style="fill:#ffffff;stroke-width:0.139648"
   d="m 251.14585,510.39509 c -1.07307,-0.56673 -2.52265,-1.80324 -3.22127,-2.7478 C 246.64452,505.9166 105.9872,251.60255 103.04942,245.70722 94.795391,229.14362 88.863297,208.5377 86.486355,188.1732 85.507622,179.78788 85.658349,159.18638 86.760086,150.75947 92.017973,110.54316 109.08697,76.208281 137.5664,48.560825 165.07826,21.852674 199.23425,5.6645885 237.24282,1.319613 c 8.60665,-0.98387512 26.29597,-1.12794253 34.85615,-0.2838796 32.99391,3.253311 64.20447,15.9347356 90.26684,36.6770766 6.96123,5.540252 21.15143,19.742278 26.66085,26.683066 19.82813,24.979546 32.13607,54.357954 36.21594,86.445514 1.12244,8.82783 1.26567,28.75603 0.26832,37.33181 -2.39551,20.59794 -8.36993,41.21359 -16.82108,58.04373 -3.28853,6.54899 -143.29332,259.64664 -144.61577,261.4333 -2.71756,3.67146 -8.74903,4.95204 -12.92822,2.74486 z m 23.32838,-256.14527 c 28.41886,-6.8032 50.71742,-25.89188 61.26623,-52.44697 7.13133,-17.9521 7.60666,-39.59601 1.28623,-58.56875 C 327.95636,116.00669 304.70981,94.552713 276.84948,87.697239 269.08652,85.787041 264.7707,85.288422 256,85.288422 c -14.83498,0 -26.8667,2.906777 -39.57487,9.561003 -23.04598,12.067295 -38.79543,33.081635 -44.42692,59.278415 -1.02289,4.75834 -1.19141,7.11012 -1.19141,16.6268 0,9.52408 0.16798,11.86477 1.19321,16.6268 3.72837,17.31764 11.35099,31.42344 23.53222,43.54683 3.50057,3.48395 8.4495,7.80179 10.99763,9.59519 9.11962,6.41854 21.05175,11.60187 31.87016,13.84442 7.54357,1.5637 7.36488,1.55109 19.4474,1.37252 9.65803,-0.14274 11.79779,-0.33457 16.62681,-1.49058 z"
   id="path45" /></svg>
