<?xml version="1.0" encoding="UTF-8" standalone="no"?>
<svg
   xmlns:dc="http://purl.org/dc/elements/1.1/"
   xmlns:cc="http://creativecommons.org/ns#"
   xmlns:rdf="http://www.w3.org/1999/02/22-rdf-syntax-ns#"
   xmlns:svg="http://www.w3.org/2000/svg"
   xmlns="http://www.w3.org/2000/svg"
   xmlns:sodipodi="http://sodipodi.sourceforge.net/DTD/sodipodi-0.dtd"
   xmlns:inkscape="http://www.inkscape.org/namespaces/inkscape"
   version="1.1"
   id="Layer_1"
   x="0px"
   y="0px"
   viewBox="0 0 512 512"
   style="enable-background:new 0 0 512 512;"
   xml:space="preserve"
   sodipodi:docname="locationButton.svg"
   inkscape:version="1.0 (4035a4fb49, 2020-05-01)"><metadata
   id="metadata43"><rdf:RDF><cc:Work
       rdf:about=""><dc:format>image/svg+xml</dc:format><dc:type
         rdf:resource="http://purl.org/dc/dcmitype/StillImage" /></cc:Work></rdf:RDF></metadata><defs
   id="defs41" /><sodipodi:namedview
   inkscape:document-rotation="0"
   pagecolor="#ffffff"
   bordercolor="#666666"
   borderopacity="1"
   objecttolerance="10"
   gridtolerance="10"
   guidetolerance="10"
   inkscape:pageopacity="0"
   inkscape:pageshadow="2"
   inkscape:window-width="1920"
   inkscape:window-height="1137"
   id="namedview39"
   showgrid="false"
   inkscape:zoom="1.8945312"
   inkscape:cx="256"
   inkscape:cy="256"
   inkscape:window-x="1912"
   inkscape:window-y="2"
   inkscape:window-maximized="1"
   inkscape:current-layer="Layer_1" />
<g
   id="g6">
	<g
   id="g4">
		<path
   d="M256,0C161.896,0,85.333,76.563,85.333,170.667c0,28.25,7.063,56.26,20.49,81.104L246.667,506.5    c1.875,3.396,5.448,5.5,9.333,5.5s7.458-2.104,9.333-5.5l140.896-254.813c13.375-24.76,20.438-52.771,20.438-81.021    C426.667,76.563,350.104,0,256,0z M256,256c-47.052,0-85.333-38.281-85.333-85.333c0-47.052,38.281-85.333,85.333-85.333    s85.333,38.281,85.333,85.333C341.333,217.719,303.052,256,256,256z"
   id="path2" />
	</g>
</g>
<g
   id="g8">
</g>
<g
   id="g10">
</g>
<g
   id="g12">
</g>
<g
   id="g14">
</g>
<g
   id="g16">
</g>
<g
   id="g18">
</g>
<g
   id="g20">
</g>
<g
   id="g22">
</g>
<g
   id="g24">
</g>
<g
   id="g26">
</g>
<g
   id="g28">
</g>
<g
   id="g30">
</g>
<g
   id="g32">
</g>
<g
   id="g34">
</g>
<g
   id="g36">
</g>
<path
   style="fill:#808080;stroke-width:0.139648"
   d="m 251.14585,510.39509 c -1.07307,-0.56673 -2.52265,-1.80324 -3.22127,-2.7478 C 246.64452,505.9166 105.9872,251.60255 103.04942,245.70722 94.795391,229.14362 88.863297,208.5377 86.486355,188.1732 85.507622,179.78788 85.658349,159.18638 86.760086,150.75947 92.017973,110.54316 109.08697,76.208281 137.5664,48.560825 165.07826,21.852674 199.23425,5.6645885 237.24282,1.319613 c 8.60665,-0.98387512 26.29597,-1.12794253 34.85615,-0.2838796 32.99391,3.253311 64.20447,15.9347356 90.26684,36.6770766 6.96123,5.540252 21.15143,19.742278 26.66085,26.683066 19.82813,24.979546 32.13607,54.357954 36.21594,86.445514 1.12244,8.82783 1.26567,28.75603 0.26832,37.33181 -2.39551,20.59794 -8.36993,41.21359 -16.82108,58.04373 -3.28853,6.54899 -143.29332,259.64664 -144.61577,261.4333 -2.71756,3.67146 -8.74903,4.95204 -12.92822,2.74486 z m 23.32838,-256.14527 c 28.41886,-6.8032 50.71742,-25.89188 61.26623,-52.44697 7.13133,-17.9521 7.60666,-39.59601 1.28623,-58.56875 C 327.95636,116.00669 304.70981,94.552713 276.84948,87.697239 269.08652,85.787041 264.7707,85.288422 256,85.288422 c -14.83498,0 -26.8667,2.906777 -39.57487,9.561003 -23.04598,12.067295 -38.79543,33.081635 -44.42692,59.278415 -1.02289,4.75834 -1.19141,7.11012 -1.19141,16.6268 0,9.52408 0.16798,11.86477 1.19321,16.6268 3.72837,17.31764 11.35099,31.42344 23.53222,43.54683 3.50057,3.48395 8.4495,7.80179 10.99763,9.59519 9.11962,6.41854 21.05175,11.60187 31.87016,13.84442 7.54357,1.5637 7.36488,1.55109 19.4474,1.37252 9.65803,-0.14274 11.79779,-0.33457 16.62681,-1.49058 z"
   id="path45" /><path
   id="path25"
   d="m 251.42087,510.09373 c -2.89835,-1.42937 1.70396,6.52576 -45.16083,-78.06074 C 172.50261,371.10404 118.41615,273.18712 108.87875,255.73608 101.50652,242.24675 98.519756,235.6143 95.004826,224.92745 90.566058,211.43176 87.565346,197.34093 86.559587,185.2701 83.237209,145.39583 94.297841,104.86354 117.29238,72.648103 122.96824,64.696199 128.27372,58.500444 136.14187,50.63561 163.52245,23.266574 197.38964,6.679993 235.88523,1.7859318 c 9.42505,-1.19823628 31.88405,-1.20297386 40.43642,-0.00853 36.41983,5.0864766 68.01437,19.5873712 93.35249,42.8458422 16.41345,15.066297 28.22262,30.421832 37.53517,48.807214 13.69392,27.035322 19.4649,52.956612 18.56644,83.394282 -0.48299,16.3626 -3.09033,30.83548 -8.51068,47.24124 -3.87002,11.71339 -6.77178,18.22162 -14.12045,31.6701 -23.25011,42.54902 -136.40722,246.90118 -139.04678,251.10669 -0.67955,1.0827 -2.17628,2.44848 -3.32607,3.03505 -2.53748,1.29453 -6.95687,1.39657 -9.3509,0.21591 z m 17.36006,-254.62941 c 5.39564,-0.61824 14.66968,-3.32338 21.39772,-6.24149 21.75155,-9.43417 39.13452,-28.01878 46.73445,-49.9651 2.11865,-6.11803 3.77714,-13.13749 3.36051,-14.2232 -0.15869,-0.41354 -0.0312,-0.83765 0.28317,-0.94246 1.39161,-0.46387 0.9677,-27.27668 -0.46797,-29.59964 -0.17748,-0.28715 -0.40544,-1.44091 -0.5066,-2.56389 -0.33365,-3.70417 -3.94526,-13.73913 -7.36785,-20.47175 -11.19165,-22.01528 -31.63709,-38.194532 -55.76392,-44.128121 -2.97393,-0.731385 -6.8323,-1.422738 -8.57415,-1.536333 -1.74186,-0.113595 -3.5762,-0.365441 -4.07631,-0.559664 -0.50012,-0.194216 -4.30053,-0.220635 -8.44536,-0.0587 -4.14484,0.161924 -8.12457,0.3018 -8.84385,0.310826 -6.28001,0.07883 -19.28712,3.793339 -27.8024,7.939663 -24.16468,11.766479 -40.59195,32.902339 -46.97494,60.439459 -1.42691,6.15593 -1.42691,27.6255 0,33.78145 2.94466,12.70366 8.24288,24.51899 15.02993,33.51753 4.63722,6.14822 14.37365,15.88324 19.63505,19.63223 4.26042,3.03574 14.56852,8.52644 15.23454,8.11481 0.27249,-0.16841 0.57517,-0.067 0.67261,0.22531 0.28848,0.86542 10.2796,4.22343 16.5398,5.55901 4.85688,1.03618 7.40275,1.24348 15.57113,1.2679 5.37073,0.016 11.83472,-0.20797 14.36444,-0.49783 z"
   style="fill:#000000;stroke-width:0.139648" /></svg>
